<?xml version="1.0" encoding="UTF-8"?>
<svg version="1.1" xmlns="http://www.w3.org/2000/svg" width="2000" height="2242">
<path d="M0 0 C2.74411234 1.32782498 5.49524387 2.63857884 8.25244141 3.93896484 C21.68358947 10.2784159 34.97720767 16.88589838 48.26416016 23.52099609 C49.19710907 23.98617645 50.13005798 24.45135681 51.09127808 24.93063354 C63.81861578 31.2803815 76.46003762 37.77274377 89.01416016 44.45849609 C89.63736145 44.79017792 90.26056274 45.12185974 90.90264893 45.46359253 C94.75655677 47.51652245 98.60492818 49.5796586 102.45166016 51.64599609 C104.86039462 52.9391879 107.26929663 54.2320674 109.67822266 55.52490234 C110.28364395 55.84992737 110.88906525 56.17495239 111.51283264 56.50982666 C115.74572415 58.78121846 119.9841913 61.04195462 124.22509766 63.29833984 C137.97050693 70.61706764 151.6000413 78.11111632 165.12939453 85.82275391 C169.17196162 88.11500166 173.2325054 90.37451424 177.29248047 92.63574219 C188.5845166 98.92751811 199.78234707 105.36369236 210.93212891 111.90380859 C215.04772906 114.31582834 219.17541547 116.70496263 223.31494141 119.07568359 C238.25629143 127.6327543 253.0148763 136.45019666 267.70117188 145.43457031 C270.81331217 147.33579677 273.930052 149.22914258 277.04931641 151.11865234 C294.64346344 161.7802825 312.09062366 172.67158506 329.45166016 183.70849609 C330.26578369 184.22605469 331.07990723 184.74361328 331.91870117 185.27685547 C346.69341835 194.69476883 361.3617893 204.27628304 375.99682617 213.90942383 C377.8771677 215.1463839 379.75834789 216.38207007 381.64038086 217.61645508 C394.21340691 225.86316097 406.6269189 234.29898799 418.90817261 242.97415161 C421.71714922 244.95397762 424.53976995 246.9131318 427.36572266 248.86865234 C445.48412718 261.41394836 463.24390522 274.31511427 480.73632812 287.71972656 C483.6256395 289.92526521 486.53584128 292.10063291 489.45166016 294.27099609 C502.71971059 304.19368338 515.57242092 314.64107115 528.18505859 325.38134766 C531.5208647 328.21668433 534.9036672 330.97831281 538.32666016 333.70849609 C545.23834502 339.33053713 551.62078746 345.51673355 558.08349609 351.64111328 C560.88566552 354.27886609 563.72928391 356.86976489 566.57666016 359.45849609 C573.50489908 365.79689846 579.90817654 372.32889729 586.01416016 379.45849609 C586.85076172 380.40595703 587.68736328 381.35341797 588.54931641 382.32958984 C605.69936544 401.9086683 616.00681354 423.46549045 623.01416016 448.45849609 C623.29469238 449.45300781 623.57522461 450.44751953 623.86425781 451.47216797 C648.81803509 541.61857703 653.18934633 638.9379861 659.13916016 772.39599609 C659.17786224 773.50466034 659.21656433 774.61332458 659.25643921 775.75558472 C660.67909565 817.29180195 661.22179779 858.83725469 661.20166016 900.39599609 C661.20154057 901.50265877 661.20142097 902.60932144 661.20129776 903.74951935 C661.18811806 1000.92789362 658.04152987 1098.08232196 595.01416016 1414.45849609 C594.19302734 1415.47169922 593.37189453 1416.48490234 592.52587891 1417.52880859 C580.9496381 1431.59095895 568.24490224 1444.52388294 554.81542969 1456.81005859 C553.1865097 1458.30076987 551.56571359 1459.7996633 549.94775391 1461.30224609 C544.75883209 1466.08520674 539.4332599 1470.63121624 533.93994141 1475.06005859 C531.29162484 1477.23104173 528.70229237 1479.45187369 526.12109375 1481.70117188 C519.73120623 1487.26237367 513.15682466 1492.49873714 506.39794922 1497.60424805 C501.7434717 1501.12234986 497.17019431 1504.72071536 492.63916016 1508.39599609 C479.66051929 1518.87500832 466.01076317 1528.5033508 452.47509766 1538.24365234 C449.49472986 1540.38860413 446.52122374 1542.54256017 443.55322266 1544.70458984 C436.19595437 1550.05798919 428.79855054 1555.33779106 421.27978516 1560.46240234 C420.46745926 1561.01702652 419.65513336 1561.5716507 418.81819153 1562.14308167 C409.12976868 1568.75259937 399.42199029 1575.33350913 389.70166016 1581.89599609 C388.76082581 1582.53124207 387.81999146 1583.16648804 386.85064697 1583.82098389 C374.08388652 1592.43451566 361.2685115 1600.92940603 348.20214844 1609.08349609 C344.55157534 1611.37762996 340.94048748 1613.73207583 337.32666016 1616.08349609 C320.29956258 1627.12999328 303.04913846 1637.81209913 285.73669434 1648.40454102 C284.59081267 1649.10566371 283.44506012 1649.80699745 282.29943848 1650.50854492 C265.12136834 1661.0275284 247.8273999 1671.33153313 230.42285156 1681.47119141 C227.22559064 1683.33522979 224.03138393 1685.20436692 220.83837891 1687.07568359 C189.87905991 1705.20692191 158.6352734 1722.80830985 127.04736328 1739.82275391 C123.92452347 1741.50683526 120.80505758 1743.19704391 117.68603516 1744.88818359 C104.48248277 1752.0368643 91.20802997 1759.03305051 77.86181641 1765.91162109 C74.15118669 1767.82551898 70.44928524 1769.75346047 66.75952148 1771.70727539 C54.4465567 1778.22706775 42.04077131 1784.54532628 29.57666016 1790.77099609 C28.56715302 1791.27561371 27.55764587 1791.78023132 26.51754761 1792.30014038 C11.68528637 1799.70713162 -3.20317332 1806.91509842 -18.29882812 1813.77099609 C-22.55095309 1815.70980089 -26.7811688 1817.69503286 -31.01318359 1819.67724609 C-65.1235062 1835.62818936 -99.73693997 1850.20910618 -134.98583984 1863.45849609 C-135.99040222 1863.83684601 -135.99040222 1863.83684601 -137.01525879 1864.22283936 C-165.55901271 1874.95107563 -194.88269235 1884.2875858 -224.98583984 1889.45849609 C-225.73269043 1889.58691895 -226.47954102 1889.7153418 -227.24902344 1889.84765625 C-307.7098299 1903.07586426 -402.91097892 1850.40913723 -500.50927734 1804.58740234 C-504.48607424 1802.66210911 -508.46818448 1800.74972024 -512.46240234 1798.86083984 C-537.57499843 1786.97812588 -562.5130651 1774.61218671 -586.98583984 1761.45849609 C-589.1067507 1760.32403951 -591.22786113 1759.18995601 -593.34912109 1758.05615234 C-598.11828012 1755.50560329 -602.88492534 1752.95044101 -607.64990234 1750.39208984 C-612.49384626 1747.79146188 -617.34310072 1745.20106622 -622.19677734 1742.61865234 C-634.94311188 1735.83181712 -647.60248672 1728.9163507 -660.14990234 1721.76708984 C-665.40391049 1718.77724487 -670.68910016 1715.84619597 -675.98046875 1712.9230957 C-688.78420608 1705.84935315 -701.46142274 1698.58682968 -714.06933594 1691.17041016 C-716.93961978 1689.48562611 -719.81508267 1687.81011209 -722.69287109 1686.13818359 C-746.75610329 1672.15756196 -770.7109009 1658.03104968 -794.24804688 1643.17871094 C-798.68550252 1640.39056108 -803.14937346 1637.64548991 -807.61083984 1634.89599609 C-814.85095864 1630.42470294 -822.05640394 1625.90159925 -829.23583984 1621.33349609 C-830.06164551 1620.80812256 -830.88745117 1620.28274902 -831.73828125 1619.74145508 C-846.56095041 1610.28541579 -861.28255343 1600.67422302 -875.96850586 1591.00756836 C-877.84884739 1589.77060829 -879.73002757 1588.53492212 -881.61206055 1587.30053711 C-894.20187619 1579.04281885 -906.63707875 1570.60134311 -918.93136597 1561.90957642 C-921.55469258 1560.05671391 -924.18731602 1558.21735795 -926.82177734 1556.38037109 C-967.80939909 1527.7472508 -1008.69779448 1498.15851257 -1045.74365234 1464.48583984 C-1047.69792409 1462.7188241 -1049.67643722 1460.9893608 -1051.67333984 1459.27099609 C-1064.1244142 1448.41426662 -1076.26511229 1437.03805947 -1086.98583984 1424.45849609 C-1087.83146484 1423.50201172 -1088.67708984 1422.54552734 -1089.54833984 1421.56005859 C-1103.07952773 1406.13221986 -1112.61712541 1388.97539718 -1118.98583984 1369.45849609 C-1119.30133286 1368.49907104 -1119.30133286 1368.49907104 -1119.62319946 1367.52026367 C-1124.35755778 1353.05107389 -1127.95214355 1338.37659828 -1130.98583984 1323.45849609 C-1131.1293689 1322.75356018 -1131.27289795 1322.04862427 -1131.42077637 1321.32232666 C-1148.62247592 1236.30213266 -1154.04924608 1148.9646433 -1159.17333984 1032.02099609 C-1159.21026947 1030.96506256 -1159.2471991 1029.90912903 -1159.2852478 1028.82119751 C-1159.5622717 1020.70137966 -1159.78462698 1012.58051335 -1159.98583984 1004.45849609 C-1160.0064082 1003.63527611 -1160.02697655 1002.81205612 -1160.04816818 1001.96389008 C-1160.85402745 969.46082186 -1161.18874025 936.97109 -1161.17333984 904.45849609 C-1161.17322025 903.3272229 -1161.17310066 902.19594971 -1161.17297745 901.03039551 C-1161.16070697 808.59417813 -1158.26469628 716.22932802 -1109.98583984 413.45849609 C-1109.26654297 411.97929688 -1109.26654297 411.97929688 -1108.53271484 410.47021484 C-1096.43468492 386.97211827 -1075.06112019 366.61744657 -1055.68896484 349.00878906 C-1054.11332778 347.57454374 -1052.5477948 346.13026445 -1050.98583984 344.68115234 C-1045.7773938 339.87961615 -1040.43600479 335.31246441 -1034.92333984 330.86474609 C-1031.6222979 328.1607011 -1028.39838369 325.37716749 -1025.17333984 322.58349609 C-1018.83798414 317.11492869 -1012.31998395 311.92007404 -1005.70507812 306.79541016 C-1004.04072635 305.50117693 -1002.38477272 304.19707644 -1000.73193359 302.88818359 C-986.34777053 291.50072117 -971.80273348 280.31671007 -956.80371094 269.74951172 C-953.99464471 267.75456917 -951.21067712 265.72533257 -948.42333984 263.70019531 C-941.45447401 258.63982167 -934.44436985 253.6547109 -927.32861328 248.80297852 C-923.60193986 246.26112961 -919.89390114 243.69663409 -916.20849609 241.09521484 C-898.42412008 228.56682851 -880.22456232 216.67993901 -862.01416016 204.78381348 C-860.21898085 203.61083191 -858.42445684 202.4368602 -856.63037109 201.26220703 C-844.826435 193.5365067 -832.93657248 185.95486475 -820.98583984 178.45849609 C-820.06287109 177.87841797 -819.13990234 177.29833984 -818.18896484 176.70068359 C-804.54980412 168.13062271 -790.84580895 159.67583599 -777.06835938 151.33007812 C-774.36402519 149.68811504 -771.66326619 148.04045864 -768.96444702 146.38945007 C-753.80995188 137.11873018 -738.53924876 128.09251231 -723.12207031 119.26269531 C-717.9975508 116.31468043 -712.89942777 113.32180298 -707.79833984 110.33349609 C-680.48147388 94.36466478 -652.77490515 79.06217583 -624.92431641 64.046875 C-621.98004477 62.4553636 -619.04085082 60.85484412 -616.10302734 59.25146484 C-603.45102122 52.35350176 -590.71364886 45.64068594 -577.90380859 39.04052734 C-573.36567927 36.70047537 -568.84487859 34.33036364 -564.33175659 31.94247437 C-553.47417629 26.20134893 -542.53555262 20.63448616 -531.54833984 15.14599609 C-530.6388559 14.69105774 -529.72937195 14.23611938 -528.79232788 13.76739502 C-515.34002546 7.0446967 -501.81643272 0.53775739 -488.13818359 -5.71337891 C-483.26511346 -7.9404621 -478.43291103 -10.24018604 -473.61352539 -12.58081055 C-305.00063919 -94.39731613 -305.00063919 -94.39731613 0 0 Z " fill="#FEFEFE" transform="translate(1249.98583984375,218.54150390625)"/>
<path d="M0 0 C0.60430847 0.2875415 1.20861694 0.57508301 1.83123779 0.87133789 C21.29284231 10.1415469 40.58935188 19.74528848 59.875 29.375 C60.98184143 29.9270813 62.08868286 30.4791626 63.22906494 31.04797363 C76.90556254 37.87365189 90.51229131 44.80816536 104 52 C104.62773315 52.33394775 105.25546631 52.66789551 105.90222168 53.01196289 C109.83492693 55.10419505 113.76235466 57.20612505 117.6875 59.3125 C118.27195892 59.62604431 118.85641785 59.93958862 119.45858765 60.26263428 C123.64024824 62.5062124 127.82025969 64.75284672 132 67 C133.06508789 67.57186035 134.13017578 68.1437207 135.22753906 68.73291016 C147.95577048 75.57127004 160.59502339 82.54708539 173.15625 89.6875 C178.18528009 92.54474921 183.23346586 95.36640381 188.28637695 98.18115234 C200.5449045 105.01371197 212.69708146 112.01169729 224.796875 119.12109375 C228.1838528 121.10784536 231.57587891 123.08584053 234.96875 125.0625 C251.7620835 134.85375924 268.42231606 144.84827812 285 155 C286.14810602 155.70248369 287.296218 156.40495766 288.44433594 157.10742188 C301.5752344 165.1448148 314.66262703 173.24628526 327.65283203 181.50927734 C330.07674865 183.04874425 332.50486644 184.58141678 334.93359375 186.11328125 C365.01323526 205.1225936 394.71694738 224.78652036 424 245 C424.91571777 245.63196289 425.83143555 246.26392578 426.77490234 246.91503906 C438.89562348 255.29009937 450.93194864 263.76701946 462.84375 272.43652344 C465.01470987 274.01066599 467.19348371 275.57333889 469.375 277.1328125 C481.09661529 285.52313024 492.5689738 294.21908991 504 303 C505.24199271 303.95077534 506.48415751 304.90132596 507.7265625 305.8515625 C510.82552137 308.22432482 513.91484497 310.60930419 517 313 C517.5357666 313.41491699 518.0715332 313.82983398 518.62353516 314.25732422 C532.506039 325.02788397 546.03443711 336.23629151 559.40087891 347.63916016 C561.05849996 349.04978302 562.72229828 350.45287789 564.38671875 351.85546875 C572.55237427 358.76239594 580.40193696 365.95789893 588.18164062 373.29492188 C590.49349399 375.46275 592.8292519 377.60360135 595.16723633 379.74316406 C603.20650225 387.10602936 611.0804672 394.59144286 618.16796875 402.890625 C620.32715141 405.37667753 622.5711348 407.77533092 624.8125 410.1875 C630.26594776 416.18546751 635.23376939 422.45388015 640 429 C640.4125 429.56138672 640.825 430.12277344 641.25 430.70117188 C662.94132653 460.56063855 672.3770639 498.39208513 680 534 C680.16072998 534.74475586 680.32145996 535.48951172 680.48706055 536.25683594 C699.47329027 624.47870576 706.06155335 715.06597465 711 805 C711.08541046 806.5381134 711.08541046 806.5381134 711.17254639 808.1072998 C711.94423854 822.06648511 712.51991187 836.02793514 713 850 C713.04382812 851.24019897 713.08765625 852.48039795 713.1328125 853.75817871 C716.33898828 944.67958853 716.26295475 1035.80119557 704 1260 C703.90052063 1261.13042725 703.80104126 1262.26085449 703.69854736 1263.42553711 C685.09909741 1473.1367347 685.09909741 1473.1367347 619.7734375 1558.98046875 C617.70281288 1561.2090128 615.70727715 1563.49151882 613.72265625 1565.796875 C609.69669036 1570.41589327 605.40466707 1574.74231859 601.0625 1579.0625 C600.30259766 1579.82626953 599.54269531 1580.59003906 598.75976562 1581.37695312 C594.59568914 1585.53391761 590.34577962 1589.51967548 585.88696289 1593.3581543 C582.90998991 1595.94841737 580.057607 1598.66770363 577.1875 1601.375 C572.22026907 1606.02315533 567.14423967 1610.44478536 561.83203125 1614.69921875 C558.55799463 1617.35909126 555.37472518 1620.11238726 552.1875 1622.875 C547.03046672 1627.32848167 541.76872506 1631.60860993 536.38696289 1635.78686523 C531.90787506 1639.26797978 527.5107149 1642.83975596 523.125 1646.4375 C516.65308291 1651.72783194 510.04001031 1656.78890871 503.328125 1661.76953125 C499.27413162 1664.78168989 495.26758976 1667.85347263 491.26171875 1670.92919922 C482.69381631 1677.5023675 474.03760288 1683.8944876 465.1796875 1690.0703125 C460.72473631 1693.17846692 456.33157841 1696.36915087 451.9375 1699.5625 C444.38616114 1705.03681643 436.74435673 1710.36182497 429.03515625 1715.61083984 C426.99821653 1717.00121737 424.9671742 1718.3998228 422.9375 1719.80078125 C400.54471691 1735.23281772 377.8764263 1750.29499757 355 1765 C354.05318359 1765.60972656 353.10636719 1766.21945312 352.13085938 1766.84765625 C337.76023182 1776.09708128 323.32112966 1785.23148657 308.80664062 1794.25341797 C306.18585521 1795.88434167 303.5689958 1797.52136584 300.953125 1799.16015625 C287.03310508 1807.85707689 272.91667439 1816.21582237 258.78822327 1824.56770325 C254.25545281 1827.24977168 249.73630929 1829.95387132 245.22265625 1832.66796875 C239.11046705 1836.34196307 232.97509488 1839.973512 226.8125 1843.5625 C225.80550049 1844.149104 224.79850098 1844.73570801 223.76098633 1845.34008789 C195.09063707 1862.01052817 166.16082683 1878.20247373 137 1894 C135.97551758 1894.5554248 134.95103516 1895.11084961 133.89550781 1895.68310547 C120.63669963 1902.86546076 107.33751211 1909.96133684 93.95263672 1916.90600586 C90.24305459 1918.83178247 86.53748215 1920.76477209 82.83740234 1922.70874023 C68.92707718 1930.01112421 54.92923104 1937.12851738 40.87719727 1944.15405273 C37.33064225 1945.92842328 33.78735086 1947.70919605 30.24414062 1949.49023438 C14.95490474 1957.15352783 -0.45180611 1964.48925952 -15.99502563 1971.61990356 C-19.32449878 1973.14903276 -22.64781225 1974.69104523 -25.96998596 1976.23594666 C-98.87738092 2010.11028582 -176.84279101 2044.39938356 -257 2056 C-258.04534912 2056.15359985 -258.04534912 2056.15359985 -259.11181641 2056.31030273 C-344.64456144 2067.38240616 -440.40216314 2019.70973008 -544.91259766 1972.89746094 C-548.14620291 1971.39403878 -551.38588329 1969.90441031 -554.62815857 1968.4197998 C-575.28779777 1958.94509011 -595.61013851 1948.78696829 -615.9375 1938.625 C-616.63737911 1938.27532166 -617.33725822 1937.92564331 -618.05834579 1937.56536865 C-633.43525038 1929.88218421 -648.79188771 1922.17313979 -663.96121216 1914.08520508 C-666.66180789 1912.64773319 -669.36922987 1911.22338989 -672.07667542 1909.7988739 C-685.69755778 1902.62855044 -699.26007348 1895.38544916 -712.62231445 1887.74072266 C-719.6625282 1883.72256709 -726.78457865 1879.87580888 -733.9375 1876.0625 C-744.37343525 1870.48624015 -754.61554779 1864.63540357 -764.80859375 1858.62890625 C-770.8893766 1855.04961851 -777.01909423 1851.55928014 -783.1546936 1848.0753479 C-795.86078354 1840.85676458 -808.42441102 1833.41936096 -820.92773438 1825.85449219 C-824.01468523 1823.99113565 -827.10771642 1822.1383308 -830.203125 1820.2890625 C-850.85828227 1807.94743206 -871.37704458 1795.3880121 -891.67919922 1782.47314453 C-894.023289 1780.98521715 -896.3724758 1779.50562886 -898.72265625 1778.02734375 C-911.05761504 1770.24788895 -923.25658968 1762.26768205 -935.4375 1754.25 C-936.24506744 1753.71847321 -937.05263489 1753.18694641 -937.88467407 1752.63931274 C-965.3062775 1734.58298533 -965.3062775 1734.58298533 -978 1725.875 C-978.77851318 1725.34132813 -979.55702637 1724.80765625 -980.35913086 1724.2578125 C-1001.56422714 1709.69952575 -1022.51136595 1694.83556266 -1043.1953125 1679.546875 C-1046.43409655 1677.15316363 -1049.6791929 1674.76840871 -1052.9296875 1672.390625 C-1062.43104026 1665.43368627 -1071.80601919 1658.35832252 -1081 1651 C-1081.60263672 1650.51821289 -1082.20527344 1650.03642578 -1082.82617188 1649.54003906 C-1085.35077773 1647.5211425 -1087.87505899 1645.50186852 -1090.39550781 1643.4777832 C-1093.42419303 1641.04785541 -1096.46180646 1638.63221113 -1099.53125 1636.25390625 C-1107.64656803 1629.96339498 -1115.43756433 1623.3753993 -1123.15625 1616.60546875 C-1124.93603411 1615.05569911 -1126.72955062 1613.52420551 -1128.53125 1612 C-1136.64489933 1605.13513029 -1144.4502806 1597.99650829 -1152.18164062 1590.70507812 C-1154.49349399 1588.53725 -1156.8292519 1586.39639865 -1159.16723633 1584.25683594 C-1167.20650225 1576.89397064 -1175.0804672 1569.40855714 -1182.16796875 1561.109375 C-1184.32715141 1558.62332247 -1186.5711348 1556.22466908 -1188.8125 1553.8125 C-1194.26594776 1547.81453249 -1199.23376939 1541.54611985 -1204 1535 C-1204.4125 1534.43861328 -1204.825 1533.87722656 -1205.25 1533.29882812 C-1253.78058441 1466.49344552 -1257.95908704 1361.07899078 -1277.1875 1109 C-1277.22442963 1108.00532715 -1277.26135925 1107.0106543 -1277.29940796 1105.98583984 C-1277.57730893 1098.32505518 -1277.79946888 1090.6631644 -1278 1083 C-1278.02056835 1082.22156738 -1278.0411367 1081.44313477 -1278.06232834 1080.64111328 C-1278.90679469 1048.42645557 -1279.20424846 1016.22504813 -1279.1875 984 C-1279.18723312 982.83841873 -1279.18696625 981.67683746 -1279.18669128 980.48005676 C-1279.16239891 895.70292259 -1276.67225111 810.98011368 -1262 646 C-1261.87989563 644.97104614 -1261.75979126 643.94209229 -1261.63604736 642.88195801 C-1256.66374791 600.56022566 -1250.11213627 558.42020668 -1240 517 C-1239.56155762 515.20248291 -1239.56155762 515.20248291 -1239.11425781 513.36865234 C-1232.12281812 485.1996077 -1223.5882326 455.56286123 -1206 432 C-1204.86304688 430.45699219 -1204.86304688 430.45699219 -1203.703125 428.8828125 C-1189.48858501 409.86602428 -1173.13821426 391.25771283 -1155.203125 375.68359375 C-1151.08860513 372.10789718 -1147.13583038 368.38202304 -1143.1875 364.625 C-1137.89870008 359.62985272 -1132.53665007 354.84405179 -1126.84375 350.30859375 C-1123.30168088 347.43309533 -1119.87253689 344.43931972 -1116.4375 341.4375 C-1110.73839511 336.47138069 -1104.95667967 331.65621373 -1099 327 C-1097.47052734 325.7934375 -1097.47052734 325.7934375 -1095.91015625 324.5625 C-1092.28025514 321.69960632 -1088.64131649 318.84835472 -1085 316 C-1083.98655518 315.20698486 -1083.98655518 315.20698486 -1082.95263672 314.39794922 C-1066.77189881 301.74728216 -1050.58036373 289.10065399 -1033.78710938 277.26904297 C-1031.10683105 275.36575243 -1028.45135525 273.42871969 -1025.79272461 271.49536133 C-975.38714151 234.87337391 -922.92724819 200.84495364 -870 168 C-868.98921387 167.37158203 -867.97842773 166.74316406 -866.93701172 166.09570312 C-849.9722869 155.55794248 -832.84443748 145.31239395 -815.64941406 135.15673828 C-812.42760705 133.25361119 -809.20928645 131.3446711 -805.9921875 129.43359375 C-768.20942118 107.00693165 -729.90765769 85.45162594 -691.17675781 64.70751953 C-688.09924101 63.05334242 -685.02896481 61.38654448 -681.9609375 59.71484375 C-638.26113967 35.94170492 -593.73614388 13.03686719 -548.40234375 -7.45263672 C-544.63297934 -9.16691855 -540.87868929 -10.91191608 -537.125 -12.66015625 C-368.16492053 -91.16930198 -368.16492053 -91.16930198 0 0 Z M-545.71801758 62.02294922 C-551.96970323 65.05638254 -558.23203317 68.06272194 -564.51904297 71.0222168 C-572.71224917 74.8824036 -580.77686119 78.91801825 -588.76806641 83.18066406 C-594.79578537 86.39027744 -600.88290226 89.46458771 -607 92.5 C-617.08378469 97.51440777 -627.06497073 102.69764663 -637 108 C-638.04430176 108.55703613 -639.08860352 109.11407227 -640.16455078 109.68798828 C-648.45068108 114.11114295 -656.72706813 118.55222464 -665 123 C-666.06508789 123.57186035 -667.13017578 124.1437207 -668.22753906 124.73291016 C-680.95577048 131.57127004 -693.59502339 138.54708539 -706.15625 145.6875 C-711.1856923 148.54498341 -716.23430848 151.36684101 -721.28759766 154.18188477 C-733.63194068 161.06207161 -745.86447363 168.11698975 -758.05126953 175.27197266 C-760.93557244 176.96224389 -763.82423329 178.64476069 -766.71484375 180.32421875 C-789.70199999 193.68185762 -812.62906732 207.12937852 -835.12109375 221.30859375 C-841.52632513 225.34400888 -847.98209893 229.29553708 -854.4375 233.25 C-862.87988609 238.43084936 -871.25927395 243.68698826 -879.55078125 249.10546875 C-884.01587718 252.02117536 -888.51412739 254.883927 -893.01196289 257.7487793 C-905.4496964 265.67580647 -917.77248123 273.75293723 -930 282 C-931.1855314 282.79868833 -932.37107913 283.59735243 -933.55664062 284.39599609 C-954.62145297 298.59186636 -975.63132978 312.87181659 -996.23632812 327.73095703 C-998.19036621 329.13697724 -1000.14982357 330.53526869 -1002.109375 331.93359375 C-1013.0665198 339.77387177 -1023.80709751 347.87687783 -1034.49414062 356.08056641 C-1036.83974156 357.87724553 -1039.19164533 359.66518924 -1041.546875 361.44921875 C-1054.12972437 370.99129586 -1066.40945127 380.87477095 -1078.42333984 391.12426758 C-1081.6955532 393.91342056 -1085.01727055 396.62730546 -1088.375 399.3125 C-1094.32464971 404.15039035 -1099.86458868 409.3956659 -1105.4375 414.65625 C-1108.26695259 417.32487055 -1111.14475227 419.92777503 -1114.0625 422.5 C-1123.23895518 430.70970489 -1132.18942265 439.47042806 -1140 449 C-1140.64485352 449.7741626 -1140.64485352 449.7741626 -1141.30273438 450.56396484 C-1201.57397794 523.08660605 -1200.39974304 647.11681392 -1212 830 C-1212.05091797 831.20912048 -1212.10183594 832.41824097 -1212.15429688 833.66400146 C-1216.00758292 926.18196248 -1216.04032078 1019.00515035 -1193 1360 C-1192.8214447 1361.23058136 -1192.8214447 1361.23058136 -1192.63928223 1362.48602295 C-1181.98301171 1439.59065621 -1181.98301171 1439.59065621 -1146 1507 C-1145.33629395 1507.81597656 -1145.33629395 1507.81597656 -1144.65917969 1508.6484375 C-1138.20398878 1516.57896764 -1131.33144278 1523.87411169 -1124 1531 C-1121.15755146 1533.82835376 -1118.33267799 1536.67369297 -1115.51171875 1539.5234375 C-1109.18465346 1545.90481237 -1102.89555268 1552.22844767 -1096 1558 C-1094.95459555 1558.89581419 -1093.91044711 1559.7930951 -1092.8671875 1560.69140625 C-1089.85049764 1563.28872427 -1086.82653696 1565.87736907 -1083.79931641 1568.46240234 C-1082.6391774 1569.45379386 -1081.47992905 1570.44622904 -1080.32177734 1571.43994141 C-1072.67606833 1577.99965143 -1064.88340506 1584.32887439 -1056.92480469 1590.50488281 C-1054.89716063 1592.07988183 -1052.87407767 1593.66060866 -1050.8515625 1595.2421875 C-1035.180231 1607.48464712 -1019.49643826 1619.69528344 -1003.1796875 1631.0703125 C-998.72473759 1634.17846603 -994.33153747 1637.3690961 -989.9375 1640.5625 C-983.07846867 1645.53608945 -976.14971946 1650.39231083 -969.14990234 1655.1652832 C-966.54462043 1656.94270924 -963.94352896 1658.725867 -961.34838867 1660.51806641 C-951.44182435 1667.35878966 -941.45985137 1674.08030656 -931.4375 1680.75 C-930.2650322 1681.53086975 -930.2650322 1681.53086975 -929.06887817 1682.32751465 C-910.60735685 1694.62094636 -892.06746953 1706.7753012 -873.27978516 1718.56591797 C-871.02004856 1719.9873886 -868.76512144 1721.41616932 -866.51171875 1722.84765625 C-853.65998939 1731.00730891 -840.70789686 1739.00108357 -827.72253418 1746.94604492 C-826.57665252 1747.64716761 -825.43089996 1748.34850135 -824.28527832 1749.05004883 C-807.10720819 1759.56903231 -789.81323975 1769.87303704 -772.40869141 1780.01269531 C-769.21143049 1781.8767337 -766.01722378 1783.74587083 -762.82421875 1785.6171875 C-738.08054145 1800.10860197 -713.15059866 1814.22907706 -688 1828 C-687.01306152 1828.54108398 -686.02612305 1829.08216797 -685.00927734 1829.63964844 C-678.68086115 1833.10790642 -672.34393996 1836.56022356 -666 1840 C-664.46762695 1840.83096191 -664.46762695 1840.83096191 -662.90429688 1841.67871094 C-648.72937774 1849.357149 -634.49812579 1856.91531586 -620.1862793 1864.33520508 C-617.83621232 1865.56308852 -615.4920679 1866.79972434 -613.15161133 1868.0456543 C-599.41648859 1875.34453392 -585.52693663 1882.33030643 -571.61547852 1889.28491211 C-568.92821171 1890.62850509 -566.24236745 1891.97487436 -563.55786133 1893.32397461 C-546.15753193 1902.0677795 -528.66530606 1910.53342795 -510.95907593 1918.64285278 C-507.62938582 1920.16997807 -504.30698246 1921.71228246 -500.98590088 1923.25801086 C-458.30715531 1943.10669765 -414.74107632 1961.31466343 -370 1976 C-368.81921875 1976.39026367 -367.6384375 1976.78052734 -366.421875 1977.18261719 C-352.74452199 1981.67142379 -339.01487602 1985.66612135 -325 1988.9375 C-323.79029541 1989.22004639 -322.58059082 1989.50259277 -321.33422852 1989.79370117 C-242.74681685 2007.55963181 -157.28870598 1965.45092867 -87 1934 C-86.36759399 1933.71743347 -85.73518799 1933.43486694 -85.08361816 1933.14373779 C-56.03215333 1920.15709608 -27.11097549 1906.79802529 1.26293945 1892.38476562 C9.57108917 1888.18140953 17.91035716 1884.03914531 26.24572754 1879.89009094 C48.47954726 1868.84216237 48.47954726 1868.84216237 70.484375 1857.34765625 C73.4342776 1855.76735128 76.38909562 1854.19640227 79.34375 1852.625 C95.12573446 1844.21670259 110.81231283 1835.64354606 126.44921875 1826.96875 C129.91182418 1825.04802686 133.37770141 1823.13325325 136.84375 1821.21875 C194.4481124 1789.36147582 251.23500183 1755.81630822 306.70703125 1720.37109375 C309.94402099 1718.30442267 313.18851082 1716.25168816 316.44921875 1714.22265625 C330.36517765 1705.55161803 343.96543217 1696.41287878 357.58683777 1687.28952026 C362.37992003 1684.08023174 367.18112543 1680.88347568 371.98828125 1677.6953125 C386.27837505 1668.21360353 400.47590254 1658.62204977 414.50439453 1648.75488281 C416.84235064 1647.11085733 419.18425108 1645.47262997 421.52734375 1643.8359375 C453.69792379 1621.31212656 485.26507752 1597.54341441 515.17089844 1572.07714844 C518.50670454 1569.24181176 521.88950704 1566.48018329 525.3125 1563.75 C532.22418486 1558.12795896 538.6066273 1551.94176254 545.06933594 1545.81738281 C547.87150536 1543.17963001 550.71512375 1540.58873121 553.5625 1538 C559.68550686 1532.39827616 565.52524727 1526.70739108 570.9296875 1520.40625 C572.52215098 1518.55538679 574.13186869 1516.72730707 575.7578125 1514.90625 C634.5604622 1448.50630941 634.50642182 1330.15785244 644.57080078 762.86035156 C638.6840124 618.02375741 638.6840124 618.02375741 542.80126953 415.6484375 C541.17234954 414.15772623 539.55155343 412.65883279 537.93359375 411.15625 C532.77033146 406.39694138 527.46900512 401.8804956 522.00390625 397.47265625 C518.50332938 394.5911671 515.09734225 391.61264638 511.6875 388.625 C504.65474522 382.48450033 497.39895992 376.69050058 490 371 C489.00097656 370.2265625 488.00195312 369.453125 486.97265625 368.65625 C484.30869631 366.59913808 481.63926349 364.54962942 478.96582031 362.50488281 C477.53449336 361.40916755 476.10430775 360.31196089 474.67480469 359.21386719 C463.31347263 350.4875561 451.86462655 341.91653745 440.21044922 333.58544922 C437.94783852 331.96258707 435.69354851 330.32876026 433.44140625 328.69140625 C425.80711616 323.14349587 418.13915853 317.66048421 410.34179688 312.34375 C406.61540204 309.8022127 402.90772944 307.23790375 399.22265625 304.63671875 C381.43828023 292.10833242 363.23872247 280.22144291 345.02832031 268.32531738 C343.23314101 267.15233582 341.438617 265.97836411 339.64453125 264.80371094 C328.61248171 257.58321194 317.50442866 250.49105736 306.34130859 243.47509766 C304.02202354 242.01387552 301.70755024 240.54533616 299.39453125 239.07421875 C288.07611601 231.88158697 276.65120417 224.87576136 265.18066406 217.92871094 C261.81302948 215.88662365 258.44911625 213.8384746 255.0859375 211.7890625 C240.78925217 203.08067369 226.44369778 194.46306368 212 186 C210.60249512 185.17967285 210.60249512 185.17967285 209.17675781 184.34277344 C185.65263143 170.5401494 161.96641585 157.02674991 138.140625 143.75195312 C134.94529765 141.96948507 131.75373492 140.18040796 128.5625 138.390625 C104.64752543 125.00618547 80.40717945 112.24232582 56.08569336 99.61450195 C53.78988544 98.41328526 51.49984589 97.20339921 49.21313477 95.98510742 C35.17784225 88.52326822 20.97786878 81.39517448 6.76098633 74.2878418 C3.9767147 72.89574642 1.19386523 71.5008731 -1.58764648 70.10327148 C-20.24475837 60.72959282 -39.00425484 51.6705648 -58 43 C-59.78450338 42.18173271 -61.56893275 41.36330399 -63.35327148 40.54467773 C-183.93508541 -18.08994535 -183.93508541 -18.08994535 -545.71801758 62.02294922 Z " fill="#FFFFFF" transform="translate(1282,139)"/>
<path d="M0 0 C5.62086491 7.56654892 8.15157504 17.85342759 10.93261719 26.72509766 C13.01160286 33.08808646 15.61335685 37.92977163 20 43 C24.24285172 42.89897972 25.74140351 42.25895969 28.78125 39.21484375 C33.69524462 33.22605583 37.01015743 26.15353359 40.61328125 19.3359375 C49.76561655 2.45813432 49.76561655 2.45813432 57.42578125 -0.1796875 C61.85892489 0.04318092 65.89218101 0.78332152 70.1875 1.875 C71.07663086 2.09333496 71.96576172 2.31166992 72.88183594 2.53662109 C85.43648197 5.73199895 97.71746191 9.90213249 110 14 C111.18468872 14.39372803 111.18468872 14.39372803 112.39331055 14.79541016 C113.83241251 15.27408315 115.27113648 15.75389411 116.70947266 16.23486328 C118.37239964 16.79035392 120.0362618 17.34304743 121.70068359 17.89404297 C138.39445534 23.44219458 154.84469067 29.52856758 171.25 35.875 C172.21338287 36.24707581 173.17676575 36.61915161 174.16934204 37.00250244 C176.95275701 38.07903273 179.73455992 39.15960256 182.515625 40.2421875 C183.33965317 40.56169373 184.16368134 40.88119995 185.01268005 41.21038818 C190.41291074 43.32287797 195.72063574 45.60169514 201 48 C201.15723924 58.04584053 200.67192387 67.9811352 200 78 C164.75480776 85.14864443 129.38656606 91.5949924 94 98 C101.27946838 103.24458839 108.77249383 108.02906084 116.4375 112.6875 C118.75763739 114.10493207 121.07616443 115.52498678 123.39453125 116.9453125 C123.96516296 117.29459305 124.53579468 117.6438736 125.12371826 118.0037384 C129.98403251 120.98190653 134.81203812 124.00856359 139.625 127.0625 C149.66568732 133.43055784 159.74984386 139.72809676 169.8359375 146.02392578 C173.12084331 148.07547112 176.40435038 150.12923923 179.6875 152.18359375 C180.77587158 152.86446045 181.86424316 153.54532715 182.9855957 154.24682617 C185.07286874 155.55266493 187.15995472 156.85880275 189.24682617 158.1652832 C190.19017822 158.755271 191.13353027 159.34525879 192.10546875 159.953125 C192.93199951 160.47036133 193.75853027 160.98759766 194.61010742 161.52050781 C196.27590336 162.55173913 197.97998198 163.52253929 199.70874023 164.44433594 C202.29277576 166.1987818 202.78194108 166.97610963 203.5546875 169.9375 C203.77326416 170.73639648 203.99184082 171.53529297 204.21704102 172.35839844 C204.43416748 173.23012695 204.65129395 174.10185547 204.875 175 C205.11984131 175.91555664 205.36468262 176.83111328 205.61694336 177.77441406 C206.43208426 180.84456483 207.2172744 183.92143508 208 187 C208.58624288 189.26588311 209.17350656 191.53150232 209.76171875 193.796875 C210.66647001 197.28613841 211.56912951 200.77585759 212.46435547 204.26757812 C214.20429518 211.03497217 216.05642628 217.74540566 218.08618164 224.43066406 C220.42857047 232.24813714 222.39035936 240.16576263 224.4140625 248.0703125 C226.17461585 254.91350682 228.0389658 261.70159319 230.09692383 268.46044922 C231.66339177 273.67699434 233.00831079 278.9354285 234.33154297 284.21850586 C238.15094123 299.41875227 242.80421503 314.25519895 247.72265625 329.12353516 C249.81073225 335.44530072 251.84011734 341.78595198 253.875 348.125 C254.23190918 349.23157959 254.58881836 350.33815918 254.95654297 351.47827148 C256.64478961 356.72250204 258.30476466 361.97316664 259.9140625 367.2421875 C262.34918793 375.19184001 264.92709968 383.09414722 267.5 391 C270.42896314 399.99994113 273.33273111 409.00294506 276.09716797 418.05517578 C277.46811774 422.52688919 278.88889325 426.98232479 280.3125 431.4375 C280.92062919 433.34373205 281.52870038 435.2499826 282.13671875 437.15625 C282.44399902 438.11917969 282.7512793 439.08210938 283.06787109 440.07421875 C283.99223494 442.97562692 284.91277156 445.878221 285.83203125 448.78125 C288.40192822 456.89166119 290.97481578 464.99853547 293.6875 473.0625 C295.5120268 478.49461387 297.23625482 483.94833236 298.90625 489.4296875 C302.40360896 500.84606637 306.05044107 512.20871782 309.8515625 523.52734375 C311.28394629 527.8585995 312.62836279 532.21292492 313.953125 536.578125 C314.74177628 539.15595531 315.54382733 541.72755908 316.359375 544.296875 C316.59011719 545.02592041 316.82085938 545.75496582 317.05859375 546.50610352 C317.51211832 547.93697993 317.96777536 549.36718256 318.42578125 550.79663086 C320 555.77732532 320 555.77732532 320 558 C157.64 558 -4.72 558 -172 558 C-170.5026439 553.50793169 -168.87542908 549.27677924 -166.9375 544.98046875 C-166.63431854 544.30182266 -166.33113708 543.62317657 -166.01876831 542.92396545 C-165.36066677 541.45135049 -164.70135169 539.97927737 -164.04095459 538.50769043 C-162.2318736 534.4754181 -160.43283333 530.43866669 -158.6328125 526.40234375 C-158.06580124 525.13168564 -158.06580124 525.13168564 -157.48733521 523.83535767 C-153.24596735 514.32326356 -149.05802395 504.78786123 -144.875 495.25 C-144.12052658 493.53084201 -143.36605068 491.8116851 -142.61157227 490.0925293 C-138.99223101 481.84230231 -135.38242881 473.58799814 -131.78515625 465.328125 C-131.12715222 463.81866906 -130.4691128 462.30922854 -129.81103516 460.79980469 C-128.58792527 457.99434213 -127.36797434 455.1875358 -126.14990234 452.37988281 C-125.60916199 451.13862286 -125.06831583 449.89740898 -124.52734375 448.65625 C-124.06062256 447.58181641 -123.59390137 446.50738281 -123.11303711 445.40039062 C-122 443 -122 443 -121 442 C-120.91845684 438.97763781 -120.90310873 435.97851134 -120.92926025 432.95632935 C-120.93349463 431.99543424 -120.93772901 431.03453912 -120.9420917 430.04452598 C-120.95199555 427.92662683 -120.96421088 425.80873759 -120.97837639 423.69086266 C-121.0094169 419.04074552 -121.02955533 414.39059709 -121.05063105 409.74042583 C-121.06216468 407.2345066 -121.07430644 404.7285901 -121.08700705 402.22267652 C-121.13305857 393.01107509 -121.15874015 383.79956445 -121.17108154 374.58786011 C-121.17246466 373.58904818 -121.17246466 373.58904818 -121.17387572 372.57005824 C-121.18231399 366.3833367 -121.1893791 360.19661384 -121.19573832 354.00988984 C-121.20019021 349.76375353 -121.20543559 345.51761879 -121.21142578 341.27148438 C-121.2124107 340.56615959 -121.21339563 339.86083481 -121.21441039 339.13413654 C-121.2316437 327.72469631 -121.29180184 316.31585099 -121.36704543 304.90666355 C-121.44325306 293.18935325 -121.46980408 281.47265993 -121.45151305 269.75511348 C-121.44347851 263.1773026 -121.45856651 256.60137524 -121.5291214 250.02389908 C-121.59501024 243.82936714 -121.59984212 237.63774889 -121.55850792 231.44303322 C-121.55407368 229.17387707 -121.57175125 226.90454938 -121.61358833 224.63577461 C-121.92657118 206.612012 -121.92657118 206.612012 -117.13826752 201.24972153 C-114.01934652 198.35785363 -110.64024601 196.18369563 -107 194 C-105.6907688 192.99114273 -104.39474993 191.96436836 -103.125 190.90625 C-101.578125 189.71515625 -101.578125 189.71515625 -100 188.5 C-94.75925173 184.43230048 -89.66203955 180.22646138 -84.61767578 175.91845703 C-80.62079022 172.50916874 -76.55282307 169.20596542 -72.4375 165.94140625 C-68.96908645 163.17890379 -65.54569657 160.36254718 -62.1171875 157.55078125 C-58.42089398 154.52224436 -54.71000173 151.51171492 -51 148.5 C-45.63446142 144.14370261 -40.27687075 139.77813293 -34.93359375 135.39453125 C-32.59837681 133.48842209 -30.25666591 131.59135735 -27.91015625 129.69921875 C-27.19214844 129.11914062 -26.47414063 128.5390625 -25.734375 127.94140625 C-24.31794915 126.79756595 -22.90004779 125.65554964 -21.48046875 124.515625 C-20.82820312 123.98839844 -20.1759375 123.46117187 -19.50390625 122.91796875 C-18.63487671 122.21837036 -18.63487671 122.21837036 -17.74829102 121.50463867 C-15.72755564 119.76552513 -13.86530456 117.903659 -12 116 C-16.33638107 114.30570172 -20.672934 112.61184587 -25.00976562 110.91870117 C-28.72660206 109.46749834 -32.44264345 108.01428285 -36.15820312 106.55981445 C-44.95272198 103.12007456 -53.7527342 99.70006907 -62.58984375 96.37109375 C-64.72127208 95.56372669 -66.85245753 94.75572128 -68.98361206 93.94763184 C-70.32542783 93.44179818 -71.66879839 92.94006943 -73.01370239 92.44250488 C-74.86700142 91.75674342 -76.71492678 91.05651032 -78.5625 90.35546875 C-79.59503906 89.97028076 -80.62757813 89.58509277 -81.69140625 89.18823242 C-84 88 -84 88 -85 85 C-83.91537045 82.42515705 -82.76937767 80.06994686 -81.4375 77.625 C-81.03982422 76.88620605 -80.64214844 76.14741211 -80.23242188 75.38623047 C-72.54756403 61.4523698 -63.56861415 47.91695516 -53 36 C-52.24074219 35.13246094 -51.48148438 34.26492188 -50.69921875 33.37109375 C-48.49515791 30.88550581 -46.25914899 28.43551378 -44 26 C-43.45085937 25.39671875 -42.90171875 24.7934375 -42.3359375 24.171875 C-35.28925095 16.7433483 -11.01285774 -5.41388385 0 0 Z " fill="#8B3C7F" transform="translate(926,636)"/>
<path d="M0 0 C1.13300537 0.00563965 2.26601074 0.0112793 3.43334961 0.01708984 C36.78999936 0.49452506 64.90627033 14.21706909 88.19604492 37.78149414 C92.85903318 42.62173585 96.9138959 47.53228046 100.375 53.3125 C101.02726562 54.36695313 101.67953125 55.42140625 102.3515625 56.5078125 C117.75952332 81.98283807 124.0422789 113.02841761 117.4765625 142.359375 C108.80397513 174.69502582 90.607543 202.67618078 61.4543457 219.97509766 C53.42529476 224.55285216 45.16367015 228.42962059 36.375 231.3125 C35.74561523 231.52277832 35.11623047 231.73305664 34.46777344 231.94970703 C14.98714116 238.12852134 -9.9826079 237.54059359 -29.625 232.3125 C-31.48125 231.81943359 -31.48125 231.81943359 -33.375 231.31640625 C-48.225038 226.84592606 -61.7424806 219.24195337 -73.625 209.3125 C-74.62015625 208.48105469 -75.6153125 207.64960937 -76.640625 206.79296875 C-88.55771269 196.50882921 -97.40241137 184.22879206 -104.625 170.3125 C-105.09550781 169.41273438 -105.56601562 168.51296875 -106.05078125 167.5859375 C-119.47222303 140.07821473 -120.27938174 107.22577805 -110.42285156 78.48730469 C-103.29792094 59.06598218 -91.04315228 40.11865878 -74.625 27.3125 C-73.09359375 26.06726563 -73.09359375 26.06726563 -71.53125 24.796875 C-50.95079737 8.54551338 -26.21249468 -0.13826197 0 0 Z " fill="#FEFEFE" transform="translate(979.625,855.6875)"/>
<path d="M0 0 C20.625 -0.04125 41.25 -0.0825 62.5 -0.125 C68.98462891 -0.14320801 75.46925781 -0.16141602 82.15039062 -0.18017578 C90.13964844 -0.18920898 90.13964844 -0.18920898 93.89343262 -0.19088745 C96.48531043 -0.19393548 99.07698518 -0.20015121 101.66882324 -0.21115112 C137.09895837 -0.35487125 137.09895837 -0.35487125 151.6875 4.1875 C152.3875415 4.40108154 153.08758301 4.61466309 153.80883789 4.8347168 C171.74556422 10.59578989 186.50750636 22.22904523 195.375 38.9375 C203.23438695 55.98800336 203.07006348 74.9417709 196.8125 92.5 C189.31849915 110.96189713 175.64909834 124.4325854 157.73828125 132.875 C147.19651963 137.20599479 137.1711865 140.13399498 125.68774414 140.11352539 C124.98313521 140.11364593 124.27852629 140.11376646 123.55256557 140.11389065 C121.2967291 140.11315085 119.04097773 140.10556564 116.78515625 140.09765625 C115.38244669 140.09618394 113.97973658 140.09516501 112.57702637 140.09460449 C107.40550914 140.08938515 102.23400371 140.0754239 97.0625 140.0625 C85.491875 140.041875 73.92125 140.02125 62 140 C62 167.72 62 195.44 62 224 C41.54 224 21.08 224 0 224 C0 150.08 0 76.16 0 0 Z " fill="#8B3D80" transform="translate(302,1300)"/>
<path d="M0 0 C1.63889563 1.21057705 3.26454787 2.43933349 4.875 3.6875 C5.58785156 4.2340625 6.30070313 4.780625 7.03515625 5.34375 C14.16814593 11.17108646 18.74936626 18.47413995 23.0859375 26.515625 C23.87556885 27.97597168 23.87556885 27.97597168 24.68115234 29.46582031 C25.07512207 30.19897461 25.4690918 30.93212891 25.875 31.6875 C26.44831055 30.69907104 26.44831055 30.69907104 27.03320312 29.69067383 C46.62630073 -4.06380073 46.62630073 -4.06380073 48.875 -6.3125 C55.475 -6.3125 62.075 -6.3125 68.875 -6.3125 C68.875 53.0875 68.875 112.4875 68.875 173.6875 C51.385 173.6875 33.895 173.6875 15.875 173.6875 C15.545 167.4175 15.215 161.1475 14.875 154.6875 C13.26625 156.37875 11.6575 158.07 10 159.8125 C-1.97442067 171.96694694 -15.98233531 176.71979989 -32.84667969 176.98046875 C-57.69734002 177.11108983 -78.45205245 170.67805983 -96.875 153.3125 C-116.55573509 132.41632759 -122.8915631 104.16271104 -122.3671875 76.3046875 C-121.48576021 50.28949191 -110.40006747 27.18385611 -91.67578125 9.35546875 C-79.83035613 -1.03805075 -66.38624577 -6.23240821 -51.125 -9.3125 C-50.31289063 -9.50457031 -49.50078125 -9.69664063 -48.6640625 -9.89453125 C-32.17528076 -12.6088384 -13.84925878 -9.40823506 0 0 Z " fill="#8B3D80" transform="translate(640.125,1350.3125)"/>
<path d="M0 0 C17.16 0 34.32 0 52 0 C53.46610148 3.66525371 54.49149365 6.72004882 55.33203125 10.5078125 C55.57058838 11.56718018 55.80914551 12.62654785 56.05493164 13.71801758 C56.3049292 14.84232178 56.55492676 15.96662598 56.8125 17.125 C58.75943069 25.73113598 60.80100244 34.28940134 63.10125732 42.80760193 C64.59411411 48.3757439 65.97435316 53.96339241 67.296875 59.57421875 C67.50991776 60.47321899 67.72296051 61.37221924 67.94245911 62.29846191 C68.62952287 65.19868818 69.31488448 68.09931293 70 71 C71.65226524 77.98844329 73.30709463 84.97626752 74.96704102 91.96289062 C75.45406656 94.01595663 75.93970714 96.06935159 76.42407227 98.12304688 C77.13720744 101.14539297 77.85522075 104.16654404 78.57421875 107.1875 C78.78882248 108.10200928 79.00342621 109.01651855 79.22453308 109.95874023 C80.21913572 114.11779563 81.23870132 118.08307448 83 122 C89.18909011 91.86677716 89.18909011 91.86677716 95.25439453 61.70849609 C97.06309521 52.62753903 98.94547756 43.56214838 100.82958984 34.49658203 C102.52393087 26.33434557 104.18411976 18.16615575 105.79516602 9.98706055 C106.45847034 6.63253138 107.17033648 3.31865407 108 0 C123.84 0 139.68 0 156 0 C161.67840759 21.57794885 161.67840759 21.57794885 163.4375 29.625 C167.25387584 46.69552532 171.34551137 63.68809586 175.81567383 80.59936523 C177.72016592 87.83493314 179.49227285 95.09569796 181.17602539 102.38574219 C182.94226132 109.97076602 184.96902281 117.4825027 187 125 C192.52499211 103.17438182 197.79965083 81.31216636 202.71484375 59.33984375 C203.309292 56.68476019 203.9043692 54.02981852 204.5 51.375 C204.64652008 50.72170715 204.79304016 50.06841431 204.94400024 49.39532471 C207.75697063 36.87592646 210.83026947 24.43299475 214 12 C214.99 8.04 215.98 4.08 217 0 C228.88 0 240.76 0 253 0 C248.48302469 19.19714506 248.48302469 19.19714506 246.1875 25.5 C243.65735783 32.75785629 241.52897973 40.08738631 239.5 47.5 C237.26359501 55.65247274 234.86104449 63.69563315 232.12451172 71.69335938 C230.27756249 77.10517866 228.62050215 82.55156079 227.03466797 88.04492188 C225.10095287 94.72087927 223.05376554 101.36010987 221 108 C218.76994982 115.21711268 216.55097421 122.43531263 214.4375 129.6875 C212.51296139 136.28114371 210.55104247 142.86285768 208.5625 149.4375 C208.29816162 150.31817139 208.03382324 151.19884277 207.76147461 152.10620117 C205.02019043 161.13962616 201.98940692 170.03177925 199 179 C183.49 179 167.98 179 152 179 C150.74169037 175.85422592 149.7355321 173.31192784 148.9921875 170.11328125 C148.81429688 169.35708496 148.63640625 168.60088867 148.453125 167.82177734 C148.26234375 166.99371582 148.0715625 166.1656543 147.875 165.3125 C147.66617187 164.42256348 147.45734375 163.53262695 147.2421875 162.61572266 C146.49086306 159.41138795 145.74531294 156.20573822 145 153 C143.67055969 147.29075478 142.33709852 141.58245646 141 135.875 C140.7395842 134.76273041 140.7395842 134.76273041 140.47390747 133.62799072 C138.34856262 124.56290333 136.16372829 115.52208916 133.72924805 106.53417969 C131.88747759 99.7069948 130.27271426 92.8297076 128.69848633 85.9362793 C128.50536865 85.10394775 128.31225098 84.27161621 128.11328125 83.4140625 C127.94610596 82.6813916 127.77893066 81.9487207 127.60668945 81.19384766 C126.91920597 78.707841 125.99473419 76.37786105 125 74 C121.06646135 87.09542037 117.37491068 100.20984973 114.12817383 113.49291992 C112.57454848 119.81134099 110.8609992 126.04676256 108.96655273 132.27026367 C106.59653775 140.15557356 104.60121056 148.14021106 102.58618164 156.12231445 C102.30895264 157.21116943 102.03172363 158.30002441 101.74609375 159.421875 C101.50560303 160.37674805 101.2651123 161.33162109 101.01733398 162.31542969 C99.47166678 167.91351212 97.70791769 173.4492675 96 179 C80.16 179 64.32 179 48 179 C42.8125 159.625 42.8125 159.625 41.21020508 153.63525391 C38.37055937 143.03341591 35.47347594 132.44928544 32.5227356 121.87786865 C31.35230664 117.67323468 30.20719996 113.46169489 29.0625 109.25 C28.55339742 107.38020507 28.04428247 105.5104135 27.53515625 103.640625 C27.28137207 102.70798828 27.02758789 101.77535156 26.76611328 100.81445312 C25.51251869 96.20915088 24.256138 91.60460902 23 87 C22.49998622 85.16667042 21.99998623 83.33333709 21.5 81.5 C21.2525 80.5925 21.005 79.685 20.75 78.75 C18.5 70.5 18.5 70.5 17.75024414 67.75048828 C17.24970572 65.91545221 16.74889149 64.08049134 16.24780273 62.24560547 C15.00377868 57.68889769 13.7644296 53.13102339 12.53515625 48.5703125 C12.0446439 46.75510748 11.55375829 44.94000329 11.0625 43.125 C10.82120361 42.23280762 10.57990723 41.34061523 10.33129883 40.42138672 C8.97625355 35.45125995 7.56803881 30.50096604 6.1015625 25.5625 C5.7830835 24.4885498 5.46460449 23.41459961 5.13647461 22.30810547 C4.52076838 20.24286805 3.89951336 18.17927369 3.27172852 16.11767578 C2.98998779 15.1739209 2.70824707 14.23016602 2.41796875 13.2578125 C2.16813232 12.4342627 1.9182959 11.61071289 1.66088867 10.76220703 C0.81624168 7.23197577 0.45023005 3.60184039 0 0 Z " fill="#8B3D7F" transform="translate(1444,1345)"/>
<path d="M0 0 C2.4479837 1.8899327 4.71126112 3.84745629 6.9453125 5.984375 C7.57566406 6.57476563 8.20601562 7.16515625 8.85546875 7.7734375 C19.70060384 18.97610451 23.41602009 33.37679655 23.37475586 48.49951172 C23.05949444 63.4367213 17.24868855 74.68099895 6.66796875 85.26171875 C-10.51327358 100.15594047 -36.16929473 105.41847448 -58.2421875 105.234375 C-60.01384277 105.22422363 -60.01384277 105.22422363 -61.82128906 105.21386719 C-76.47324504 105.04167968 -90.00780458 103.19639521 -104.0546875 98.984375 C-99.73142771 115.44065421 -94.9657048 131.29984771 -79.90625 141.015625 C-66.76168558 148.49178751 -53.56597207 150.23487423 -38.7421875 146.359375 C-32.57406367 144.38223373 -27.31814165 141.74263273 -22.0546875 137.984375 C-21.10335938 137.32501953 -21.10335938 137.32501953 -20.1328125 136.65234375 C-13.09272736 131.24767662 -8.70878918 122.93741983 -5.0546875 114.984375 C0.00017177 115.71532206 4.54434429 117.66818404 9.2578125 119.546875 C10.09376953 119.87623047 10.92972656 120.20558594 11.79101562 120.54492188 C13.84394796 121.35436377 15.89528536 122.16760957 17.9453125 122.984375 C13.18390317 138.6947256 0.83164705 149.9680206 -13.0546875 157.984375 C-38.09067101 171.25004481 -69.4181666 174.53201414 -96.61767578 166.41162109 C-108.95075152 162.49749396 -119.2609253 156.3636816 -129.0546875 147.984375 C-130.0859375 147.200625 -131.1171875 146.416875 -132.1796875 145.609375 C-147.53548912 131.58886048 -155.31664899 111.98793245 -159.0546875 91.984375 C-159.2403125 91.22769531 -159.4259375 90.47101563 -159.6171875 89.69140625 C-163.47996152 65.790492 -156.89859601 40.5819819 -143.34814453 20.77050781 C-128.1193658 -0.25888916 -105.23724131 -12.46388467 -79.88964844 -16.640625 C-53.25396404 -20.16391222 -22.57934186 -14.89890077 0 0 Z " fill="#8C3D80" transform="translate(1403.0546875,1357.015625)"/>
<path d="M0 0 C20.46 0 40.92 0 62 0 C66.49934996 10.12353741 66.49934996 10.12353741 67.68481445 13.65380859 C68.09314262 14.85866409 68.09314262 14.85866409 68.50971985 16.08786011 C68.79139511 16.93285065 69.07307037 17.77784119 69.36328125 18.6484375 C69.67174484 19.56134552 69.98020844 20.47425354 70.29801941 21.41482544 C70.9607083 23.37694461 71.62157116 25.33968129 72.28076172 27.30297852 C74.05923259 32.5984113 75.85222012 37.88892625 77.64453125 43.1796875 C78.19278061 44.79934418 78.19278061 44.79934418 78.75210571 46.45172119 C82.26849103 56.82450764 85.87533538 67.16465898 89.5 77.5 C96.52449651 97.54659401 103.37161976 117.65170953 110.1998291 137.76585388 C113.27865083 146.83037831 116.38420042 155.88562822 119.5 164.9375 C119.85414978 165.96645889 119.85414978 165.96645889 120.2154541 167.01620483 C121.47594115 170.67782464 122.73742383 174.33910005 124 178 C128.45054729 164.90594609 132.6584568 151.7506404 136.72558594 138.5324707 C138.79520691 131.82390673 140.92066554 125.14437903 143.1875 118.5 C145.18376623 112.6276446 146.96226374 106.72497833 148.625 100.75 C152.62293619 86.41787962 157.24644016 72.27537604 161.75224304 58.09710693 C164.14023372 50.57532136 166.48248381 43.03993647 168.8125 35.5 C172.47819394 23.64588486 176.22126712 11.81859008 180 0 C192.54 0 205.08 0 218 0 C215.75032932 10.12351807 215.75032932 10.12351807 214.34619141 13.98242188 C213.87147903 15.30044548 213.87147903 15.30044548 213.38717651 16.64509583 C213.04542389 17.5769017 212.70367126 18.50870758 212.3515625 19.46875 C211.98717072 20.47705368 211.62277893 21.48535736 211.24734497 22.5242157 C210.45815882 24.7068627 209.6666034 26.88865421 208.8729248 29.06967163 C206.71301166 35.00689742 204.57196669 40.9509247 202.4296875 46.89453125 C201.98306763 48.13253983 201.53644775 49.3705484 201.07629395 50.64607239 C196.21644606 64.1302149 191.4803937 77.65747932 186.75 91.1875 C180.74209083 108.3600075 174.7008846 125.51900331 168.55636597 142.64312744 C164.6591877 153.50521395 160.80593265 164.38174772 156.9921875 175.2734375 C156.56247147 176.49962296 156.13275543 177.72580841 155.6900177 178.989151 C153.56976155 185.04019482 151.45344273 191.09256709 149.34350586 197.1472168 C148.5690002 199.35991668 147.79434893 201.57256561 147.01953125 203.78515625 C146.67223969 204.78642548 146.32494812 205.7876947 145.96713257 206.81930542 C145.6348465 207.7658902 145.30256042 208.71247498 144.96020508 209.68774414 C144.67679764 210.50038223 144.3933902 211.31302032 144.10139465 212.15028381 C142.55108743 216.1615032 140.74655282 220.07025615 139 224 C120.52 224 102.04 224 83 224 C73.83667159 201.09167898 73.83667159 201.09167898 71.125 193.578125 C70.45648479 191.74535287 69.78794518 189.91258963 69.11938477 188.07983398 C68.77626251 187.1356662 68.43314026 186.19149841 68.07962036 185.21871948 C60.69512003 164.9129613 53.15974605 144.66438876 45.5625 124.4375 C45.19297588 123.45351982 45.19297588 123.45351982 44.81598663 122.44966125 C42.51618327 116.32568149 40.21567108 110.20196827 37.91412354 104.0786438 C33.82977251 93.21181866 29.75145728 82.34273781 25.67578125 71.47265625 C25.37001474 70.65716246 25.06424824 69.84166866 24.74921608 69.00146294 C23.22197768 64.92817432 21.69481627 60.85485685 20.16769409 56.78152466 C17.58958488 49.90496115 15.01084967 43.0286324 12.43213463 36.15229607 C11.68259452 34.15358265 10.93306764 32.15486427 10.18354797 30.15614319 C9.94958596 29.53248399 9.71562395 28.90882479 9.47457218 28.26626682 C8.78846162 26.43590794 8.1040271 24.60492107 7.4196167 22.77392578 C6.39830668 20.04826249 5.3601077 17.32951178 4.31524658 14.61279297 C3.89765548 13.51951942 3.89765548 13.51951942 3.47162819 12.40415955 C2.93372067 10.99649324 2.39195527 9.59029329 1.8458004 8.18580627 C0.74761946 5.30128364 0 3.11571304 0 0 Z " fill="#8B3D7F" transform="translate(915,1300)"/>
<path d="M0 0 C17.16 0 34.32 0 52 0 C60.03815893 17.22462627 60.03815893 17.22462627 62.98828125 23.9921875 C63.32909729 24.76980438 63.66991333 25.54742126 64.02105713 26.34860229 C65.11987616 28.85667363 66.2162193 31.36581826 67.3125 33.875 C68.09414031 35.66056029 68.87596386 37.44604038 69.65795898 39.23144531 C70.87324159 42.0062751 72.08835032 44.78118 73.30274963 47.55639648 C76.1482504 54.05878513 79.00150848 60.55772507 81.859375 67.0546875 C83.42720917 70.61973634 84.99493413 74.18483318 86.5625 77.75 C87.13115784 79.04330231 87.13115784 79.04330231 87.71130371 80.36273193 C92.41311391 91.0601237 97.09589377 101.76393393 101.62915039 112.53417969 C102.91024488 116.01848679 102.91024488 116.01848679 105 119 C105.23200104 118.30177628 105.46400208 117.60355255 105.70303345 116.88417053 C108.674472 107.94276449 111.64862526 99.00226397 114.625 90.0625 C114.86317444 89.34712067 115.10134888 88.63174133 115.34674072 87.89468384 C122.03644409 67.80435544 128.76812275 47.72991155 135.64697266 27.70336914 C136.03920517 26.56110619 136.03920517 26.56110619 136.43936157 25.39576721 C137.1186578 23.41907476 137.79947747 21.44290601 138.48046875 19.46679688 C140.68436951 12.98823512 142.83600044 6.49199868 145 0 C157.21 0 169.42 0 182 0 C175.12160077 18.34239794 175.12160077 18.34239794 172.4765625 24.50390625 C172.17370834 25.21794617 171.87085419 25.93198608 171.55882263 26.66766357 C170.91578323 28.18351089 170.27141965 29.69879713 169.62576294 31.21353149 C167.85800903 35.36276414 166.10270002 39.51725349 164.34765625 43.671875 C163.80500374 44.95612114 163.80500374 44.95612114 163.25138855 46.26631165 C159.45922902 55.25613859 155.75461561 64.28122324 152.0625 73.3125 C150.73207633 76.56522922 149.40135923 79.81783819 148.0703125 83.0703125 C147.73822281 83.88180756 147.40613312 84.69330261 147.0639801 85.52938843 C141.4625408 99.20667162 135.78665145 112.85324556 130.11207581 126.50030518 C128.07204435 131.40940094 126.04212432 136.32250974 124.02149963 141.23962402 C106.91794696 182.85575063 88.14929732 223.55779529 63 261 C59.9164232 260.36816907 57.58622008 259.32811656 54.890625 257.71484375 C54.13652344 257.26689453 53.38242187 256.81894531 52.60546875 256.35742188 C51.43951172 255.65456055 51.43951172 255.65456055 50.25 254.9375 C49.45722656 254.46505859 48.66445313 253.99261719 47.84765625 253.50585938 C45.8956889 252.34173427 43.94664195 251.17300098 42 250 C43.55645298 244.38048081 46.30608608 239.78704222 49.25 234.8125 C68.7117215 205.60784215 68.7117215 205.60784215 75 173 C73.93027826 169.90711295 73.93027826 169.90711295 72.5078125 166.828125 C71.97776611 165.62953857 71.44771973 164.43095215 70.90161133 163.19604492 C70.30949682 161.88065643 69.71728979 160.56530958 69.125 159.25 C68.50003604 157.84453862 67.87595663 156.43868363 67.25268555 155.0324707 C65.89753889 151.97820353 64.53756979 148.9261454 63.17431641 145.87548828 C60.93921911 140.86986613 58.72366922 135.85572963 56.51171875 130.83984375 C55.73674636 129.08284005 54.96176251 127.32584141 54.18676758 125.56884766 C53.79711823 124.68545715 53.40746887 123.80206665 53.00601196 122.89190674 C50.98316886 118.30829913 48.95646508 113.72640016 46.9296875 109.14453125 C46.31855858 107.76288788 46.31855858 107.76288788 45.69508362 106.35333252 C44.87222254 104.4930535 44.04934151 102.6327833 43.22644043 100.77252197 C39.62916828 92.6404384 36.03273116 84.50798612 32.4375 76.375 C32.04911957 75.49653412 31.66073914 74.61806824 31.2605896 73.71298218 C24.43560987 58.27369888 17.64373674 42.81999334 10.87280273 27.35693359 C10.16781835 25.74836698 9.46282204 24.13980559 8.7578125 22.53125 C8.42715286 21.7752652 8.09649323 21.0192804 7.7558136 20.24038696 C5.51872067 15.13876321 3.20650265 10.07705546 0.80810547 5.04882812 C0 3 0 3 0 0 Z " fill="#8B3D7F" transform="translate(731,1345)"/>
<path d="M0 0 C17.49 0 34.98 0 53 0 C53 59.07 53 118.14 53 179 C35.51 179 18.02 179 0 179 C0 119.93 0 60.86 0 0 Z " fill="#8B3D7F" transform="translate(1157,1345)"/>
<path d="M0 0 C2.7578125 1.69921875 2.7578125 1.69921875 5.125 3.4375 C6.11113281 4.12779297 6.11113281 4.12779297 7.1171875 4.83203125 C19.12710464 14.94705036 23.18450528 33.80000633 24.55688477 48.56713867 C26.57593367 73.25325525 24.8573119 98.54087865 10.125 119.4375 C9.67640625 120.08074219 9.2278125 120.72398438 8.765625 121.38671875 C4.32681709 127.13472563 -2.57767091 132.26217797 -9.875 133.4375 C-21.74703477 134.18332299 -30.54890707 133.97296837 -40.0625 126.1875 C-51.27352548 115.68828566 -55.47411089 103.29705695 -57.875 88.4375 C-58.04845947 87.37200928 -58.22191895 86.30651855 -58.40063477 85.20874023 C-58.89295095 81.29478856 -59.0366358 77.45653682 -59.04296875 73.51953125 C-59.04629715 72.78103439 -59.04962555 72.04253754 -59.05305481 71.28166199 C-59.05808935 69.72611101 -59.06046422 68.17054935 -59.06030273 66.61499023 C-59.06247795 64.27373761 -59.08063958 61.93296572 -59.09960938 59.59179688 C-59.17632914 39.73007876 -55.41326283 20.80856015 -41.875 5.4375 C-39.18359375 3.453125 -39.18359375 3.453125 -36.3125 1.6875 C-35.36246094 1.09453125 -34.41242187 0.5015625 -33.43359375 -0.109375 C-24.48602688 -5.19104657 -9.05173261 -4.33560696 0 0 Z " fill="#FEFEFE" transform="translate(630.875,1368.5625)"/>
<path d="M0 0 C3.63 0 7.26 0 11 0 C11 4.62 11 9.24 11 14 C13.000625 13.938125 15.00125 13.87625 17.0625 13.8125 C27.07663949 13.80233336 36.53148575 15.68024653 46 19 C45.03644647 34.74487472 45.03644647 34.74487472 44 42 C43.12819092 41.70452271 43.12819092 41.70452271 42.23876953 41.40307617 C35.49838993 39.23609918 28.89375517 38.13035262 21.875 37.3125 C18.28625 36.879375 14.6975 36.44625 11 36 C11 48.21 11 60.42 11 73 C14.3 73.99 17.6 74.98 21 76 C35.03422724 81.08834549 46.28840338 87.40240686 53.0234375 101.078125 C56.62099905 109.989516 56.19083905 121.03526172 53 130 C47.54813343 142.18151438 39.02147591 148.02426612 27 153 C21.62161029 154.73160897 16.66202488 156 11 156 C11 161.61 11 167.22 11 173 C7.37 173 3.74 173 0 173 C0 167.72 0 162.44 0 157 C-2.000625 157.04125 -4.00125 157.0825 -6.0625 157.125 C-18.0424511 157.11291125 -29.4606311 155.15856425 -41 152 C-40.69414597 148.20776622 -40.37919391 144.4163427 -40.0625 140.625 C-39.97548828 139.54476563 -39.88847656 138.46453125 -39.79882812 137.3515625 C-39.71181641 136.3203125 -39.62480469 135.2890625 -39.53515625 134.2265625 C-39.456604 133.27346191 -39.37805176 132.32036133 -39.29711914 131.33837891 C-39 129 -39 129 -38 127 C-32 129 -32 129 -30.01953125 129.73046875 C-20.21607204 133.24828562 -10.35333076 134.05878811 0 135 C0 122.46 0 109.92 0 97 C-2.97 96.34 -5.94 95.68 -9 95 C-22.22344483 90.43718497 -34.37184601 83.8118545 -41 71 C-44.47288331 61.1914512 -44.71224201 49.12227788 -40.9375 39.375 C-35.4470789 28.19310012 -26.56066836 21.20211898 -15 17 C-9.76986897 15.46986249 -5.52700342 15 0 15 C0 10.05 0 5.1 0 0 Z " fill="#8D3F81" transform="translate(978,888)"/>
<path d="M0 0 C52.58775137 0 52.58775137 0 64.625 10.9375 C74.24270083 20.95455172 76.19080467 32.26984283 76.25 45.5 C76.270625 46.62148437 76.29125 47.74296875 76.3125 48.8984375 C76.37866039 63.22216104 72.85612721 76.6179955 62.8671875 87.25 C46.43871373 102.64739801 19.74941848 97 0 97 C0 64.99 0 32.98 0 0 Z " fill="#FEFDFE" transform="translate(364,1322)"/>
<path d="M0 0 C10.27162905 7.40030912 15.9401051 16.52798011 18 29 C18.92456804 41.92950624 17.46472952 53.3521202 9.25 63.6875 C1.9894852 71.61461293 -8.15737764 75.32294241 -18.7331543 76.36938477 C-22.68139409 76.4998947 -26.61398378 76.50687873 -30.5625 76.4375 C-31.6029245 76.42926712 -31.6029245 76.42926712 -32.66436768 76.42086792 C-60.6007556 76.1996222 -60.6007556 76.1996222 -69 72 C-69.21054166 62.12793544 -69.23398324 52.68059404 -67 43 C-66.63261719 41.35644531 -66.63261719 41.35644531 -66.2578125 39.6796875 C-62.35623643 24.24601931 -54.67133377 9.21677452 -40.875 0.5 C-29.40827859 -6.14066021 -11.5604904 -6.82619433 0 0 Z " fill="#FEFDFE" transform="translate(1366,1367)"/>
<path d="M0 0 C6.00808293 4.55895025 11.2503113 10.30194861 13.21875 17.68359375 C14.27127115 27.82243671 12.80851576 36.28624694 6.59375 44.49609375 C1.11205376 50.42641987 -7.26222027 53.77240121 -15.21875 54.12109375 C-23.17070613 54.04398387 -29.61958983 51.1182169 -35.7265625 46.078125 C-41.49919638 39.9718967 -43.98314223 32.46782641 -44.34375 24.18359375 C-44.00837225 15.26464182 -40.85993644 9.31366219 -34.40625 3.24609375 C-24.50702777 -4.76063011 -11.43236202 -6.72603965 0 0 Z " fill="#8C3D80" transform="translate(1198.78125,1276.31640625)"/>
<path d="M0 0 C6.14752479 2.04917493 8.92803333 3.42612234 12 9 C12.94222634 13.41237703 12.32653721 17.0011803 10.9375 21.25 C8.50468742 24.70302431 5.7061021 26.98173717 2 29 C1.34 29 0.68 29 0 29 C0 19.43 0 9.86 0 0 Z " fill="#FCFBFC" transform="translate(989,991)"/>
<path d="M0 0 C0 9.9 0 19.8 0 30 C-4.80210037 28.07915985 -6.60863889 26.67397453 -10 23 C-10.33 22.67 -10.66 22.34 -11 22 C-11.62052249 16.3798392 -12.12487257 10.76588007 -8.8125 5.9375 C-6.65643699 3.41902184 -3.54781335 0 0 0 Z " fill="#FCFBFC" transform="translate(978,926)"/>
</svg>
